<?xml version="1.0" encoding="utf-8"?>
<!-- Generator: Adobe Illustrator 19.0.0, SVG Export Plug-In . SVG Version: 6.00 Build 0)  -->
<svg version="1.1" id="Camada_1" xmlns="http://www.w3.org/2000/svg" xmlns:xlink="http://www.w3.org/1999/xlink" x="0px" y="0px"
	 viewBox="0 0 85 85" style="enable-background:new 0 0 85 85;" xml:space="preserve">
<g id="hMzqmR.tif">
	<g id="XMLID_1_">
		<path id="XMLID_185_" d="M82.9,16.4c0,1,0,2.1,0,3.1c0,0.1-0.1,0.2-0.1,0.3c-0.5,3.7-2,6.8-4.8,9.4c-3.4,3.2-6.7,6.6-10.1,9.9
			c-3.5,3.5-7.1,7-10.6,10.4c-3.3,3.3-6.7,6.5-10,9.8c-3.6,3.5-7.2,7.1-10.8,10.6c-2.4,2.4-4.9,4.8-7.3,7.3c-1.8,1.8-3.9,3.1-6.3,4
			c-1,0.4-2,0.6-3,0.8c-1.5,0-3,0-4.5,0c-0.2-0.1-0.3-0.1-0.5-0.2c-3.3-0.5-6.1-2.1-8.5-4.3c-2-1.8-3.3-4.2-4.1-6.8
			C2.2,69.9,2,68.9,1.8,68c0-1,0-2.1,0-3.1C1.9,64.3,2,63.6,2.2,63c0.8-3.4,2.6-6.1,5.1-8.5c3.6-3.3,6.9-6.8,10.4-10.2
			c3.4-3.3,6.7-6.6,10.1-9.9c4.1-4.1,8.3-8.2,12.4-12.3C45.3,17.1,50.5,12,55.6,6.9c1.8-1.8,3.9-3,6.2-3.7c1.6-0.5,3.3-0.7,5-1
			c0.1,0,0.1,0,0.2,0c0.3,0,0.6,0.1,0.9,0.1c4.4,0.2,8,2.2,11,5.2c1.7,1.7,2.7,3.8,3.4,6.1C82.5,14.6,82.7,15.5,82.9,16.4z M70.5,22
			c0-0.8-0.6-1.4-1.4-1.4c-0.9,0-1.6,0.6-1.6,1.4c0,0.8,0.7,1.4,1.6,1.5C69.8,23.4,70.4,22.8,70.5,22z M29.4,62.5
			c0-0.8-0.7-1.4-1.5-1.4c-0.9,0-1.5,0.6-1.5,1.4c0,0.9,0.6,1.4,1.6,1.5C28.7,63.9,29.4,63.2,29.4,62.5z M56.6,23.4
			c0.7,0,1.6-0.8,1.6-1.4c0-0.6-0.9-1.4-1.5-1.4c-0.8,0-1.5,0.6-1.5,1.4C55.2,22.8,55.8,23.4,56.6,23.4z M23.2,56.4
			c0-0.8-0.6-1.4-1.4-1.4c-0.8,0-1.5,0.6-1.5,1.4c0,0.8,0.6,1.4,1.4,1.5C22.5,57.9,23.2,57.2,23.2,56.4z M23.2,68.5
			c0-0.7-0.6-1.4-1.4-1.4c-0.8,0-1.4,0.7-1.4,1.4c0,0.8,0.6,1.4,1.4,1.4C22.6,69.9,23.2,69.3,23.2,68.5z M64.3,28.1
			c0-0.7-0.6-1.4-1.4-1.4c-0.8,0-1.5,0.6-1.5,1.4c0,0.8,0.7,1.4,1.4,1.4C63.6,29.5,64.3,28.8,64.3,28.1z M64.3,16
			c0-0.7-0.6-1.4-1.4-1.4c-0.8,0-1.5,0.6-1.5,1.4c0,0.8,0.6,1.4,1.4,1.5C63.6,17.4,64.2,16.8,64.3,16z M16.9,62.5
			c0-0.8-0.7-1.5-1.4-1.4c-0.7,0-1.4,0.6-1.4,1.4c0,0.8,0.7,1.5,1.5,1.5C16.3,63.9,16.9,63.2,16.9,62.5z"/>
		<path id="XMLID_166_" d="M13.9,43.9c-2.3,2.3-4.5,4.5-6.7,6.7c-0.3,0.3-0.6,0.3-0.9,0c-0.2-0.2-0.4-0.4-0.7-0.7
			c-0.6-0.7-0.6-1.4,0-2c1.7-1.7,3.5-3.4,5.2-5.1c0.6-0.5,1.3-0.5,1.9,0C13.2,43.2,13.5,43.5,13.9,43.9z"/>
		<path id="XMLID_165_" d="M50.8,7.7c-2.5,2.5-4.9,4.8-7.4,7.2c-0.3-0.4-0.7-0.7-1-1.1c-0.5-0.6-0.5-1.3,0-1.9c1.6-1.7,3.3-3.4,5-5
			c0.7-0.7,1.6-0.6,2.4,0.1C50.1,7.1,50.4,7.4,50.8,7.7z"/>
		<path id="XMLID_164_" d="M33.3,77.2c2.5-2.4,4.9-4.7,7.4-7.1c0.4,0.4,0.8,0.8,1.1,1.3c0.4,0.6,0.4,1.3-0.2,1.8
			c-1.7,1.7-3.5,3.4-5.3,5.1c-0.6,0.5-1.2,0.5-1.8,0C34.1,78,33.8,77.6,33.3,77.2z"/>
		<path id="XMLID_163_" d="M77.3,34.1c0.4,0.4,0.9,0.8,1.3,1.2c0.4,0.5,0.4,1-0.1,1.5c-1.6,1.6-3.2,3.2-4.9,4.8
			c-1.1,1.1-1.7,1.1-2.9,0c-0.2-0.2-0.3-0.4-0.5-0.5C72.6,38.8,75,36.4,77.3,34.1z"/>
	</g>
</g>
</svg>
