<svg xmlns="http://www.w3.org/2000/svg" viewBox="0 0 85 85">
<g id="_x35_XJSek.tif">
	<g id="XMLID_1_">
		<path id="XMLID_22_" d="M83.7,40.4c0,1.4,0,2.9,0,4.3c0,0.2-0.1,0.5-0.1,0.7c-0.2,1.6-0.4,3.3-0.7,4.9c-1.4,7.3-4.6,13.8-9.5,19.4
			c-0.3,0.3-0.8,0.5-1.1,0.5c-4.8-0.5-9.7-1.1-14.5-1.7c-7.2-0.9-14.4-1.8-21.5-2.6c-0.8-0.1-1-0.4-1-1.1c0-14.4,0-28.8,0-43.1
			c0-0.1,0-0.3,0-0.4c0-0.4,0.1-0.6,0.6-0.6c6.1-0.6,12.3-1.3,18.4-1.9c0.7-0.1,1.3-0.2,2-0.3c0,0,0,0,0,0c-8.3,0-16.5,0-24.8,0
			c0,0.3,0,0.5,0,0.7c0,16,0,32.1,0,48.1c0,0.8,0.3,1.2,1,1.6c7.6,4,15.2,8.1,22.8,12.1c0.3,0.1,0.5,0.3,0.8,0.5
			c-0.2,0.1-0.4,0.2-0.5,0.2c-1.9,0.5-3.8,1-5.7,1.4c-1.4,0.3-2.9,0.4-4.4,0.6c-1.5,0-3.1,0-4.6,0c-0.2,0-0.4-0.1-0.6-0.1
			c-5.2-0.3-10.2-1.6-14.9-3.9c-8.4-4.1-14.8-10.2-18.9-18.6c-2-4.1-3.5-8.4-4-12.9c-0.1-1.1-0.3-2.3-0.4-3.4c0-1.5,0-3,0-4.5
			c0.2-1,0.3-2,0.5-3C3.4,28.5,7.1,21,12.9,14.7C19.3,7.9,27,3.8,36.1,2.3c1.5-0.2,2.9-0.4,4.4-0.6c1.4,0,2.9,0,4.3,0
			C46,1.9,47.2,2,48.4,2.2c10.7,1.6,19.5,6.6,26.3,15c4.5,5.6,7.4,11.9,8.3,19C83.3,37.6,83.5,39,83.7,40.4z"/>
	</g>
</g>
</svg>
