<svg xmlns="http://www.w3.org/2000/svg" viewBox="0 0 85 85">
<g id="eFmYh2.tif">
	<g id="XMLID_1_">
		<path id="XMLID_132_" d="M69.5,82c-14,0-28,0-42,0c-1.8-0.7-2.3-2.1-2.3-3.8c0-1.7-0.1-3.3,0-5c0.1-1.3-0.3-2.2-1.3-3.2
			c-5.9-5.5-11-11.8-15.3-18.7c-1.5-2.3-3.2-4.5-3.4-7.4c-0.3-3.5,0.1-6.8,2.9-9.2c3.5-3,8.9-2.5,12.4,0.8c0.5,0.5,1,1,1.7,1.7
			c0-0.9,0-1.4,0-1.9c0-6.8,0.1-13.7,0-20.5c0-3.3,1.6-5.4,4.3-6.9C29.2,6.3,32,6.1,35,7.1c1.5-3,4-4.4,6.9-5.4c1.3,0,2.5,0,3.8,0
			c1.8,1,3.6,2,5.3,3.1c0.7,0.4,1,0.7,1.9,0.5c4.3-1.3,8.5-0.2,10.7,3.1c1,1.4,1.4,3.2,2.2,4.8c7.2-1.3,12,2.7,12,10.2
			c0,10.1,0,20.2,0,30.4c0,4.8-0.8,9.4-3.5,13.2c-2.4,3.4-2.9,6.8-2.6,10.7C71.8,79.6,71.3,81.1,69.5,82z M65.3,75.6
			c0-1.6-0.2-3.2,0.1-4.7c0.2-1.3,0.6-2.7,1.3-3.7c3.1-4,4.9-8.3,4.9-13.4c0-10,0-20,0-30.1c0-0.7,0-1.4-0.2-2
			c-0.4-1.6-1.4-2.4-2.8-2.5c-1.7,0-2.5,1-2.8,2.4c-0.2,0.7-0.3,1.4-0.3,2.2c0,3.3,0,6.7,0,10c0,2.5-2.6,3.9-4.7,2.7
			c-1.3-0.8-1.6-1.9-1.6-3.3c0-6,0-12,0-18c0-0.8-0.1-1.7-0.4-2.4c-0.5-1.3-1.8-1.9-3.4-1.6c-1.5,0.3-2.2,1.1-2.2,2.7
			c0,5.7,0,11.4,0,17.1c0,0.8,0,1.7-0.3,2.3c-0.5,0.8-1.3,1.6-2.2,1.9c-1.1,0.4-2.4,0.2-3-1c-0.5-0.9-0.8-2-0.8-3.1
			c-0.1-6.7,0-13.5,0-20.2c0-1.7-1.2-2.9-2.9-2.9c-1.8-0.1-3.1,1.2-3.1,3c0,6.6,0,13.3,0,19.9c0,0.7,0,1.4-0.1,2
			c-0.3,1.5-1.3,2.3-2.8,2.4c-1.5,0.1-2.7-0.6-3.1-2c-0.2-0.7-0.3-1.5-0.3-2.3c0-5,0-10,0-15c0-2.2-0.8-3-2.9-3c-2,0-3,1-3,3
			c0,9.5,0,18.9,0,28.4c0,1.6-0.3,3.1-2,3.7c-1.7,0.7-3,0-4.2-1.3c-1.8-1.9-3.6-3.9-5.5-5.8c-0.6-0.6-1.5-1.2-2.3-1.6
			c-1.4-0.7-2.6,0-3,1.5c-0.4,1.6-0.2,3.1,0.7,4.5c1,1.5,2,3,3,4.6c4.1,6.6,9.5,12,14.9,17.4c1,1,1.4,2.1,1.4,3.5c0,1.6,0,3.2,0,4.8
			C42.9,75.6,54,75.6,65.3,75.6z"/>
		<path id="XMLID_124_" d="M37.3,55.6c-2.7-3.5-3.1-5.7-1.2-8c2-2.7,4.5-3,8.7-1.3c2.1-3,4.9-4.8,8.6-3.1c3.1,1.5,2.8,4.4,2.5,7.2
			c4.5,1.5,5.9,3,5.7,6.4c-0.1,3-1.8,4.5-6.1,5.5c0.2,4.5-0.9,6.5-4.2,7.3c-2.9,0.7-5.4,0.4-7.5-4.1c-3.1,1.3-6.2,1.3-8.2-1.9
			C33.5,60.5,35,57.9,37.3,55.6z M53.9,56.1c0.1-3.5-2.6-6.4-6.2-6.5c-3.8-0.1-6.6,2.5-6.7,6.4c-0.1,3.5,2.9,6.5,6.5,6.6
			C50.9,62.7,53.7,59.8,53.9,56.1z"/>
	</g>
</g>
</svg>
