<svg xmlns="http://www.w3.org/2000/svg" viewBox="0 0 85 85">
<g id="_x32_ZgmvQ.tif">
	<g id="XMLID_1_">
		<path id="XMLID_162_" d="M81.4,59.4c0,0.6,0,1.2,0,1.8c0,0.1-0.1,0.3-0.1,0.4c-0.5,2.3-1.8,3.9-4,4.9c-0.4,0.2-0.4,0.5-0.4,0.8
			c0,3.6,0,7.1,0,10.7c0,1.9-0.8,2.8-2.7,2.8c-20.8,0-41.7,0-62.5,0c-1.9,0-2.7-0.8-2.7-2.8c0-3.6,0-7.1,0-10.7
			c0-0.5-0.1-0.7-0.6-0.9c-0.6-0.3-1.2-0.7-1.7-1.1c-1.3-1.1-1.9-2.5-2.3-4.1c0-0.6,0-1.2,0-1.8c0-0.1,0.1-0.2,0.1-0.3
			c0.5-2.4,1.8-4.1,4-5.1c0.2-0.1,0.3-0.5,0.3-0.7c0-7.5,0-14.9,0-22.4c0-0.4-0.1-0.6-0.5-0.8c-0.6-0.3-1.2-0.7-1.8-1.1
			C5.4,28,4.8,26.6,4.4,25c0-0.7,0-1.4,0-2.1c0-0.1,0.1-0.2,0.1-0.3c0.9-4.9,3.7-8.1,8.6-9.4c0.4-0.1,0.6-0.3,0.7-0.7
			c1.2-4.2,3.8-6.9,8-8.2c0.6-0.2,1.2-0.3,1.7-0.4c12.9,0,25.9,0,38.8,0c0.1,0,0.2,0.1,0.3,0.1c5,0.9,8.2,3.8,9.5,8.6
			c0.1,0.2,0.4,0.5,0.7,0.6c4.2,1.2,6.9,3.8,8.2,8c0.2,0.6,0.3,1.2,0.4,1.7c0,0.7,0,1.4,0,2.1c0,0.1-0.1,0.2-0.1,0.3
			c-0.5,2.4-1.8,4.1-4,5.1c-0.2,0.1-0.3,0.5-0.3,0.7c0,7.5,0,14.9,0,22.4c0,0.4,0.1,0.6,0.5,0.8c0.6,0.3,1.2,0.7,1.8,1.1
			C80.4,56.4,81,57.9,81.4,59.4z M40.2,53.5c10.8,0,21.4,0,32.1,0c0-0.4,0-0.7,0-0.9c0-7,0-14,0-21c0-0.8-0.2-1.4-1-1.6
			c-0.3-0.1-0.5-0.3-0.7-0.5c-0.4-0.3-0.6-0.3-1,0c-2.4,1.8-5.6,1.8-8,0c-0.4-0.3-0.7-0.3-1.1,0c-2.4,1.8-5.6,1.8-8,0
			c-0.5-0.3-0.8-0.4-1.2,0c-2.3,1.8-5.6,1.8-7.9,0c-0.5-0.4-0.8-0.3-1.2,0c-2.4,1.8-5.6,1.7-8,0c-0.4-0.3-0.7-0.3-1.1,0
			c-2.4,1.8-5.6,1.8-7.9,0c-0.5-0.3-0.7-0.3-1.2,0c-2.1,1.5-4.5,1.8-6.8,0.6c-1.2-0.7-2.1-0.9-3.2,0c-0.4,0.3-0.7,0.5-0.7,1.1
			c0,7.2,0,14.4,0,21.6c0,0.2,0,0.5,0,0.8c1.6,0,3.2,0,4.7,0c0.7-3.2,2.6-5.7,5.4-7.4c-1.6-4-1.2-6.9,1.4-9c2.3-1.9,5.5-2.1,8-0.5
			c1.2,0.8,2,1.8,2.5,3.1c0.9,2.2,0.6,4.3-0.6,6.3C37.7,47.8,39.5,50.3,40.2,53.5z M72.3,67.2c-19.7,0-39.3,0-58.9,0
			c0,3.1,0,6.1,0,9.1c19.7,0,39.3,0,58.9,0C72.3,73.2,72.3,70.2,72.3,67.2z M42.9,17.3c-8.9,0-17.9,0-26.8,0c-2.3,0-4.3,0.8-5.8,2.7
			c-0.9,1.2-1.4,2.6-1.4,4.1c0,1.2,1,2.2,2.2,2.2c1.3,0,2.2-0.9,2.3-2.3c0.1-1.3,1-2.2,2.3-2.2c1.2,0,2.1,0.9,2.2,2.2
			c0.1,1.4,1,2.3,2.3,2.3c1.2,0,2.1-0.9,2.2-2.3c0.1-1.3,1.1-2.2,2.3-2.2c1.2,0,2.1,0.9,2.2,2.1c0.2,1.5,1,2.4,2.3,2.4
			c1.2,0,2.1-0.9,2.2-2.4c0.1-1,0.6-1.7,1.5-2c1.5-0.6,2.9,0.4,3,2.1c0.2,1.8,2,2.8,3.5,1.9c0.8-0.5,1.1-1.2,1.2-2.1
			c0.1-1.2,1.1-2.1,2.2-2.1c1.2,0,2.1,0.9,2.2,2.1c0,0.1,0,0.3,0,0.4c0.2,1.1,1.1,1.9,2.2,1.9c1.1,0,2.1-0.8,2.2-2
			c0-0.2,0-0.4,0-0.5c0.2-1.2,1.1-2,2.2-2c1.1,0,2,0.8,2.2,2c0.3,1.7,1.1,2.5,2.4,2.5c1.3,0,2-0.8,2.3-2.5c0.2-1.1,1.1-2,2.2-2
			c1.1,0,2.1,0.8,2.2,1.9c0,0.2,0,0.4,0,0.6c0.2,1.1,1.1,2,2.2,2c1.1,0,2.1-0.8,2.2-1.9c0-0.2,0-0.4,0-0.6c0.2-1.1,1.1-2,2.2-2
			c1.1,0,2.1,0.8,2.2,1.9c0,0.2,0,0.4,0,0.6c0.2,1.2,1.2,2,2.4,2c1.2-0.1,2.2-1.1,2.1-2.3c-0.1-1-0.3-2-0.7-2.8
			c-1.3-2.7-3.5-3.9-6.4-3.9C60.8,17.3,51.9,17.3,42.9,17.3z M42.9,62.6c10.5,0,21,0,31.4,0c1.5,0,2.6-0.9,2.6-2.2
			c0-1.3-1-2.3-2.5-2.3c-21,0-42,0-63,0c-1.5,0-2.5,0.9-2.5,2.2c0,1.3,1,2.3,2.5,2.3c0.2,0,0.4,0,0.6,0
			C22.3,62.6,32.6,62.6,42.9,62.6z M18.4,12.8c16.4,0,32.7,0,49,0c0-0.1,0-0.2,0-0.3c-1-2.6-3.5-4.2-6.6-4.2c-11.9,0-23.8,0-35.7,0
			c-0.3,0-0.7,0-1,0C21.4,8.6,19.1,10.4,18.4,12.8z M35.5,53.5c-0.6-2.5-3.5-4.5-6.3-4.5c-2.8,0-5.7,2.1-6.2,4.5
			C27.1,53.5,31.3,53.5,35.5,53.5z M29.2,40c-1.2,0-2.3,1-2.3,2.2c0,1.2,1,2.3,2.2,2.3c1.2,0,2.3-1,2.3-2.2
			C31.5,41.1,30.4,40.1,29.2,40z"/>
		<path id="XMLID_147_" d="M58.8,44.5c1.5,0,3,0,4.5,0c0-0.7,0-1.4,0-2.1c0-1.4,1-2.4,2.3-2.4c1.3,0,2.2,1,2.2,2.4
			c0,0.7,0,1.4,0,2.1c0.3,0.1,0.5,0.1,0.7,0.2c1,0.3,1.6,1.3,1.6,2.3c-0.1,1.1-0.9,1.9-2,2.1c-0.2,0-0.5,0-0.7,0
			c-7.3,0-14.6,0-21.9,0c-0.2,0-0.5,0-0.7,0c-1-0.2-1.8-1.1-1.9-2.1c-0.1-1,0.6-1.9,1.6-2.3c0.2-0.1,0.4-0.1,0.7-0.2
			c0-0.7,0-1.4,0-2.1c0-1.4,1-2.4,2.3-2.4c1.3,0,2.2,1,2.2,2.4c0,0.7,0,1.3,0,2.1c1.6,0,3,0,4.7,0c0-0.3,0-0.6,0-0.8
			c0-2.5,0.7-3.6,2.2-3.6c1.6,0,2.3,1.1,2.3,3.7C58.8,43.9,58.8,44.2,58.8,44.5z"/>
	</g>
</g>
</svg>
