<svg xmlns="http://www.w3.org/2000/svg" viewBox="0 0 85 85">
<g id="_x38_TKqB4_1_">
	<g id="XMLID_1_">
		<path id="XMLID_157_" d="M42.7,73.8c-12.3,0-24.7,0-37,0c-1.7,0-2.4-0.7-2.4-2.4c0-15.9,0-31.7,0-47.6c0-1.2,0.5-1.9,1.5-2.2
			c0.3-0.1,0.6-0.1,0.9-0.1c8.1,0,16.2,0,24.3,0c0.4,0,0.6-0.1,0.8-0.5c2-3.6,4.1-7.2,6.2-10.7c0.5-0.8,1.1-1.6,1.7-2.3
			c2.3-2.3,5.6-2.3,7.9,0c0.7,0.7,1.2,1.4,1.7,2.3c2.1,3.6,4.2,7.2,6.2,10.8c0.2,0.3,0.4,0.4,0.8,0.4c8.1,0,16.2,0,24.4,0
			c1.6,0,2.3,0.7,2.3,2.3c0,15.9,0,31.7,0,47.6c0,1.6-0.7,2.3-2.3,2.3C67.4,73.8,55.1,73.8,42.7,73.8z M57.5,50.8
			c0.9-0.7,1.7-1.3,2.5-1.9c0.8-0.6,1.4-0.6,2.3,0c2,1.5,3.9,2.9,5.9,4.4c0.8,0.6,1.6,1.2,2.5,1.8c0-7.4,0-14.7,0-21.9
			c-18.6,0-37.2,0-55.8,0c0,7.3,0,14.5,0,21.8c0.7-0.5,1.3-1.1,1.9-1.5c0.3-0.2,0.4-0.4,0.2-0.8c-1.7-4-0.4-8.4,3-11
			c3.4-2.5,8.2-2.4,11.4,0.5c0.8,0.7,1.4,1.5,2.1,2.3c0.3-0.3,0.7-0.7,1.1-1.1c0.7-0.7,1.5-0.7,2.3,0c0.7,0.6,1.3,1.2,2,1.8
			c0.6,0.5,1.2,1.1,1.8,1.6c0.6-0.5,1.2-1,1.7-1.4c0.8-0.7,1.6-0.6,2.4,0.1c1,1,2.1,2,3.1,3c0.6,0.5,1.1,1.1,1.7,1.6
			c0.9-0.9,1.8-1.7,2.8-2.5c0.9-0.8,1.8-0.8,2.6,0.2C55.8,48.7,56.7,49.7,57.5,50.8z M14.8,62.4c18.7,0,37.2,0,55.9,0c0-1,0-2,0-3
			c0-0.2-0.2-0.5-0.3-0.7c-1.5-1.1-3-2.2-4.5-3.4c-1.5-1.1-3.1-2.3-4.6-3.5c-0.6,0.4-1.1,0.9-1.7,1.3c0.1,0.1,0.2,0.3,0.3,0.4
			c0.7,0.8,1.4,1.7,2,2.5c0.4,0.6,0.4,1.2,0.1,1.8c-0.4,0.6-0.9,0.8-1.5,0.7c-0.4-0.1-0.8-0.4-1.1-0.7c-1.7-2.1-3.4-4.2-5.1-6.3
			c-0.2-0.3-0.4-0.5-0.7-0.8c-0.9,0.8-1.7,1.6-2.6,2.3c-0.9,0.8-1.7,0.8-2.5,0c-1.4-1.4-2.9-2.8-4.3-4.2c-0.2-0.2-0.3-0.3-0.5-0.4
			c-0.6,0.5-1.2,1-1.8,1.5c-0.7,0.5-1.4,0.5-2,0c-0.2-0.1-0.3-0.3-0.5-0.4c-1.1-1-2.3-2-3.4-3c-0.2,0.2-0.3,0.3-0.5,0.4
			c-2.3,2.2-4.7,4.5-7,6.7c-1,0.9-1.7,1-2.7,0c-0.7-0.6-1.3-1.2-2-1.8c-0.1,0.1-0.2,0.1-0.2,0.1c-2.8,2.3-5.7,4.5-8.5,6.8
			c-0.1,0.1-0.2,0.2-0.2,0.3C14.8,60.1,14.8,61.2,14.8,62.4z M10.1,25.5c0.1,0.2,0.2,0.3,0.3,0.3c0.9,1,1.9,1.9,2.8,2.9
			c0.3,0.3,0.5,0.4,0.9,0.4c6.8,0,13.6,0,20.4,0c12.3,0,24.6,0,36.9,0c0.4,0,0.6-0.1,0.9-0.4c0.9-1,1.9-2,2.8-2.9
			c0.1-0.1,0.1-0.2,0.2-0.3C53.6,25.5,31.9,25.5,10.1,25.5z M10.2,69.9c21.7,0,43.4,0,65.1,0c-0.2-0.2-0.3-0.3-0.4-0.5
			c-0.9-0.9-1.7-1.8-2.6-2.7c-0.3-0.3-0.6-0.4-1-0.4c-10.7,0-21.4,0-32.1,0c-8.3,0-16.7,0-25,0c-0.4,0-0.7,0.1-0.9,0.4
			c-0.6,0.7-1.2,1.3-1.9,2C11,69,10.6,69.4,10.2,69.9z M7.3,28.4c0,13,0,25.9,0,38.9c1.1-1.2,2.2-2.3,3.3-3.4
			c0.3-0.3,0.4-0.5,0.4-0.9c0-5.1,0-10.2,0-15.3c0-5.1,0-10.2,0-15.3c0-0.2,0-0.5-0.2-0.6c-1.1-1.1-2.1-2.3-3.2-3.4
			C7.4,28.4,7.4,28.4,7.3,28.4z M78.2,67.2c0-13,0-25.9,0-38.9c-0.1,0.1-0.2,0.2-0.3,0.3c-1,1-2,2.1-3,3.1c-0.2,0.2-0.3,0.5-0.3,0.8
			c0,3.1,0,6.2,0,9.3c0,7.1,0,14.2,0,21.3c0,0.2,0,0.4,0.1,0.5C75.8,64.8,76.9,66,78.2,67.2z M34.2,21.6c5.8,0,11.4,0,17.1,0
			c-0.1-0.1-0.1-0.3-0.2-0.4c-1.8-3.2-3.7-6.4-5.5-9.5c-0.4-0.6-0.9-1.2-1.4-1.6c-0.9-0.8-2-0.8-2.9,0c-0.6,0.5-1.1,1.2-1.5,1.8
			c-0.9,1.5-1.8,3.1-2.7,4.7C36.1,18.2,35.1,19.9,34.2,21.6z M27,50.5c1.3-1.3,2.6-2.5,3.9-3.8c0.3-0.2,0.1-0.4,0-0.6
			c-1.2-2.4-3.9-3.7-6.6-3.2c-2.6,0.5-4.7,2.7-5,5.4c-0.1,0.9,0,1.8,0.3,2.7c0.2-0.1,0.3-0.2,0.4-0.3c0.8-0.6,1.6-1.2,2.3-1.9
			c1.1-0.8,1.6-0.8,2.6,0.1C25.7,49.4,26.3,49.9,27,50.5z"/>
		<path id="XMLID_146_" d="M42.7,16.1c-1.3,0-2.4-1.1-2.4-2.4c0-1.3,1.1-2.4,2.4-2.4c1.3,0,2.4,1.1,2.4,2.4
			C45.1,15,44.1,16.1,42.7,16.1z"/>
	</g>
</g>
</svg>
