<svg xmlns="http://www.w3.org/2000/svg" viewBox="0 0 85 85">
<g id="cMB2Aw.tif">
	<g id="XMLID_1_">
		<path id="XMLID_123_" d="M40.2,3.5c1.7,0,3.3,0,5,0c0.2,0,0.4,0.1,0.6,0.1c5.4,0.5,10.8,1,16.2,1.6c6.4,0.8,11.1,6.6,10.6,13
			c-0.3,4.7-0.8,9.4-1.2,14.1c-0.1,1.4-0.2,2.8-0.4,4.3c0.3-0.1,0.6-0.1,0.8-0.1c3.9-0.5,6.9,0.8,9.2,3.9c0.9,1.3,1.3,2.7,1.7,4.2
			c0,1,0,2.1,0,3.1c-0.3,1.6-0.5,3.2-0.8,4.7c-0.5,2.5-1.4,4.8-2.6,7.1c-0.8,1.6-2.6,2.2-4.1,1.4c-1.5-0.7-2.2-2.4-1.5-4
			c0.2-0.4,0.3-0.8,0.5-1.1c1.5-3.2,2.3-6.6,2.2-10.1c0-1.7-1.3-3.1-3-3.1c-1.7,0-3.1,1.2-3.2,3c-0.1,0.9-0.2,1.8-0.3,2.6
			c-0.4,4.2-4,6.9-8.1,6.2c-2.7-0.4-5.3-0.9-8-1.3c-4.6-0.6-9.1-1-13.7-0.8c-5.5,0.2-10.8,1.1-16.2,2c-3.5,0.6-6.8-1.1-7.9-4.6
			c-0.4-1.4-0.5-2.8-0.7-4.3c-0.2-1.7-1.6-3-3.2-2.9c-1.6,0.1-3,1.4-3,3.1c0,1.4,0.1,2.9,0.4,4.3c1.2,6.4,4.6,11.5,9.4,15.7
			c0.4,0.4,0.8,0.5,1.4,0.5c15.4,0,30.7,0,46.1,0c2.3,0,3.2,0.7,3.8,2.9c0.9,3.2,1.9,6.5,2.8,9.7c0.2,0.6,0.3,1.3,0.2,1.9
			c-0.2,1.4-1.2,2.1-2.5,2.5c-0.4,0-0.7,0-1.1,0c-1.5-0.5-2.2-1.6-2.6-3.1c-0.6-2.4-1.4-4.7-2-7c-0.1-0.5-0.3-0.7-0.8-0.7
			c-14.2,0-28.4,0-42.7,0c-0.5,0-0.7,0.2-0.8,0.7c-0.7,2.3-1.4,4.7-2,7c-0.4,1.5-1.1,2.6-2.6,3.1c-0.4,0-0.7,0-1.1,0
			c-2.4-0.8-3-2.2-2.3-4.6c0.7-2.3,1.3-4.5,2-6.8c0.3-1,0.1-1.5-0.6-2.2c-5.4-5-9.1-11-10.5-18.4c-0.2-1.2-0.4-2.3-0.5-3.5
			c0-1,0-2.1,0-3.1C3,44.4,3.1,44.2,3.1,44c0.7-3.9,3.9-7,7.7-7.5c1.2-0.2,2.5,0,3.8,0c0-0.1,0-0.2,0-0.3c-0.4-4.2-0.8-8.5-1.1-12.7
			c-0.2-2.4-0.5-4.8-0.4-7.2c0.3-5.3,4.5-10.1,9.7-10.9c4.3-0.7,8.7-1.1,13.1-1.6C37.4,3.6,38.8,3.6,40.2,3.5z M66.5,17.9
			c-0.1-3.8-2.4-6.2-5.9-6.6c-2.3-0.3-4.7-0.6-7-0.9c-4.5-0.5-8.9-0.9-13.4-0.6C35,10.2,30,10.7,24.9,11.3c-3.5,0.4-5.9,3.3-5.6,6.7
			c0.2,2.3,0.4,4.5,0.6,6.7c0.7,7.4,1.3,14.8,2,22.3c0.1,1.2,0.3,1.3,1.4,1.1c4-0.6,8-1.2,12.1-1.7c5.6-0.7,11.1-0.5,16.7,0.2
			c3.5,0.4,6.9,1,10.4,1.6c1.1,0.2,1.3,0.1,1.4-0.9c0.2-2.5,0.4-5.1,0.7-7.6c0.4-4.9,0.9-9.8,1.3-14.7C66.1,22.5,66.3,20,66.5,17.9z
			"/>
	</g>
</g>
</svg>
