<svg xmlns="http://www.w3.org/2000/svg" viewBox="0 0 85 85">
<g id="zu5ScS.tif">
	<g id="XMLID_1_">
		<path id="XMLID_184_" d="M31.4,2.6c0.4,0.2,0.8,0.4,1.2,0.7c0.7,0.5,0.9,1.4,0.6,2.1c-0.3,0.7-1.1,1.1-2,1
			c-1.4-0.3-2.3-1.5-1.8-2.6c0.2-0.5,0.8-0.8,1.2-1.2C30.8,2.6,31.1,2.6,31.4,2.6z"/>
		<path id="XMLID_179_" d="M79.7,57c0,7.5,0,15,0,22.5c0,1.8-0.6,2.4-2.4,2.4c-8.8,0-17.6,0-26.4,0c-1.8,0-2.4-0.6-2.4-2.4
			c0-15,0-29.9,0-44.9c0-1,0.2-1.8,1.2-2.3c0.2-0.1,0.3-0.3,0.4-0.5c1.2-2.9,3.3-5.1,6.1-6.6c0.5-0.3,0.8-0.5,0.8-1.2
			c0.2-2.3,0.5-4.5,0.7-6.8c0.1-1.3,0.8-2,2.1-2c2.9,0,5.8,0,8.7,0c1.3,0,2,0.6,2.1,1.9c0.3,2.3,0.5,4.6,0.8,6.9
			c0,0.3,0.3,0.7,0.5,0.9c2.9,1.6,5.1,3.7,6.3,6.9c0.1,0.2,0.3,0.4,0.4,0.5c0.8,0.4,1.1,1,1.1,1.9c0,2.6,0,5.2,0,7.7
			C79.7,47,79.7,52,79.7,57z M64.9,35.8c-4.3,0-8.6,0-12.8,0c0,14.2,0,28.3,0,42.5c8,0,16,0,24,0c0-14.2,0-28.3,0-42.5
			c-1.5,0-3,0-4.5,0c0,0.3,0,0.6,0,0.9c0,3.5,0,7,0,10.5c0,0.3,0,0.7-0.1,1c-0.2,0.8-0.8,1.4-1.6,1.4c-0.8,0-1.5-0.5-1.7-1.4
			c-0.1-0.3-0.1-0.7-0.1-1.1c0-1.8,0-3.5,0-5.3c-0.4,0.2-0.7,0.4-1.1,0.5c-1.1,0.2-2-0.6-2.1-1.8C64.9,38.9,64.9,37.4,64.9,35.8z
			 M74.5,32.2c-2.6-3.9-6.3-5.5-10.6-5.4c-4.2,0.1-7.6,1.7-10.1,5.4C60.7,32.2,67.5,32.2,74.5,32.2z M67.2,18.9c-2.1,0-4.1,0-6.2,0
			c-0.2,1.5-0.3,3.1-0.5,4.5c2.4,0,4.7,0,7.1,0C67.5,21.9,67.4,20.4,67.2,18.9z"/>
		<path id="XMLID_176_" d="M10.9,60.8c0-3,0-5.9,0-9c-1.1,0-2.1,0-3.1,0c-0.4,0-0.9,0-1.3,0C5.6,51.7,5,51,5,50.1
			c0-0.8,0.6-1.5,1.4-1.7c0.3-0.1,0.7-0.1,1-0.1c3,0,5.9,0,8.9,0c0.3,0,0.6,0,0.9,0c0-3,0-5.9,0-8.9c-0.8,0-1.5,0-2.3,0
			c-2.6,0-5.1,0-7.7,0c-0.4,0-0.8,0-1.2-0.2C5.4,39,5,38.4,5,37.6c0-0.8,0.4-1.3,1.1-1.6c0.3-0.1,0.7-0.1,1-0.1c5.1,0,10.2,0,15.3,0
			c1.3,0,2.1,0.7,2.1,1.7c0,1-0.7,1.7-1.9,1.8c-0.6,0-1.2,0-1.8,0c0,3,0,5.9,0,8.9c0.3,0,0.6,0,0.9,0c5.7,0,11.3,0,17,0
			c0.3,0,0.7,0,1,0c0.9,0.1,1.6,0.8,1.5,1.7c0,0.9-0.7,1.7-1.6,1.7c-1.3,0.1-2.6,0-3.9,0c-0.1,0-0.2,0-0.4,0c0,2.9,0,5.9,0,8.9
			c0.9,0,1.8,0,2.6,0c0.6,0,1.2,0,1.8,0.1c0.9,0.2,1.4,0.8,1.4,1.7c0,0.8-0.5,1.4-1.4,1.6c-0.3,0.1-0.7,0.1-1,0.1
			c-3.2,0-6.3,0-9.5,0c-0.3,0-0.6,0-0.9,0c0,3,0,5.9,0,8.9c0.3,0,0.6,0,0.9,0c3.3,0,6.5,0,9.8,0c1.3,0,2.1,0.7,2.1,1.8
			c0,0.8-0.6,1.5-1.4,1.7c-0.3,0.1-0.7,0.1-1,0.1c-10.5,0-21,0-31.4,0c-0.3,0-0.6,0-0.9,0C5.6,76.6,5,76,5,75.1
			c0-0.9,0.6-1.6,1.5-1.7c0.4-0.1,0.7-0.1,1.1-0.1c5.5,0,10.9,0,16.4,0c0.3,0,0.6,0,1,0c0-3,0-5.9,0-8.9c-0.3,0-0.6,0-0.9,0
			c-5.5,0-11,0-16.6,0c-0.3,0-0.7,0-1-0.1C5.5,64.1,5,63.4,5,62.5c0-0.9,0.6-1.6,1.5-1.7c0.9-0.1,1.8,0,2.7,0
			C9.8,60.8,10.3,60.8,10.9,60.8z M31.8,51.9c-5.8,0-11.6,0-17.3,0c0,3,0,5.9,0,8.8c5.8,0,11.5,0,17.3,0
			C31.8,57.8,31.8,54.9,31.8,51.9z"/>
		<path id="XMLID_175_" d="M35,19.6c-2.5,0-5,0-7.4,0c-1.1,0-1.8-0.4-2-1.2c-0.4-1.1,0.4-2.2,1.7-2.3c0.8-0.1,1.7,0,2.6,0
			c4.3,0,8.5,0,12.8,0c1.2,0,2,0.6,2,1.6c0.1,0.9-0.5,1.6-1.4,1.8c-0.3,0.1-0.7,0.1-1,0.1C39.8,19.6,37.4,19.6,35,19.6
			C35,19.6,35,19.6,35,19.6z"/>
		<path id="XMLID_174_" d="M37.8,29.9c-1,0-1.6-0.4-1.9-1.1c-0.2-0.7,0-1.5,0.6-1.9c0.2-0.2,0.5-0.3,0.8-0.5
			c4.4-2.1,8.8-4.2,13.3-6.3c0.5-0.2,1.1-0.3,1.6-0.3c0.7,0.1,1.1,0.6,1.2,1.3c0.1,0.7-0.1,1.3-0.6,1.7c-0.2,0.2-0.5,0.3-0.8,0.5
			c-4.4,2.1-8.8,4.2-13.2,6.3C38.4,29.7,38,29.8,37.8,29.9z"/>
		<path id="XMLID_173_" d="M41.9,10.4c0-1.1,1-2,2.2-1.7c0.2,0.1,0.5,0.2,0.7,0.3c2.4,1.2,4.9,2.3,7.3,3.5c0.5,0.3,1,0.7,1.3,1.3
			c0.3,0.6,0.1,1.3-0.5,1.8c-0.6,0.5-1.3,0.6-2,0.2c-1.7-0.8-3.4-1.6-5.1-2.4c-0.9-0.4-1.8-0.9-2.7-1.3
			C42.3,11.7,41.9,11.2,41.9,10.4z"/>
		<path id="XMLID_172_" d="M20.2,16.1c1.3,0,2.1,0.7,2.1,1.8c0,1-0.8,1.7-2,1.7c-1.2,0-2.1-0.7-2.1-1.8C18.1,16.8,19,16.1,20.2,16.1
			z"/>
		<path id="XMLID_171_" d="M33.3,31c0,1-1.1,2.1-2.3,2.1c-1,0-1.8-0.8-1.8-1.8c0-1,1.2-2,2.3-2C32.5,29.3,33.3,30,33.3,31z"/>
		<path id="XMLID_170_" d="M35.8,7.5c0-0.9,0.8-1.7,1.7-1.7c1.1,0,2.3,1,2.3,2c0,1-0.8,1.8-1.7,1.8C36.9,9.5,35.8,8.5,35.8,7.5z"/>
		<path id="XMLID_163_" d="M68.1,54.4c0-1.6,0.9-2.5,2.2-2.2c0.6,0.2,1.1,0.6,1.2,1.2c0.1,0.5,0.1,1.1,0.1,1.6
			c-0.1,1-0.9,1.7-1.8,1.6c-0.9-0.1-1.6-0.7-1.7-1.8C68.1,54.8,68.1,54.6,68.1,54.4z"/>
	</g>
</g>
</svg>
